<?xml version="1.0" encoding="UTF-8" standalone="no"?><!DOCTYPE svg PUBLIC "-//W3C//DTD SVG 1.1//EN" "http://www.w3.org/Graphics/SVG/1.1/DTD/svg11.dtd"><svg width="100%" height="100%" viewBox="0 0 8 8" version="1.1" xmlns="http://www.w3.org/2000/svg" xmlns:xlink="http://www.w3.org/1999/xlink" xml:space="preserve" xmlns:serif="http://www.serif.com/" style="fill-rule:evenodd;clip-rule:evenodd;stroke-linecap:round;stroke-linejoin:round;stroke-miterlimit:1.5;"><circle cx="3.84" cy="5.12" r="2.56" style="fill:#0042ff;"/><path d="M3.84,2.56c1.413,0 2.56,1.147 2.56,2.56c0,1.413 -1.147,2.56 -2.56,2.56c-1.413,0 -2.56,-1.147 -2.56,-2.56c0,-1.413 1.147,-2.56 2.56,-2.56Zm0,0.24c-1.28,0 -2.32,1.04 -2.32,2.32c0,1.28 1.04,2.32 2.32,2.32c1.28,0 2.32,-1.04 2.32,-2.32c0,-1.28 -1.04,-2.32 -2.32,-2.32Z" style="fill:#fff;"/><path d="M3.475,1.012l-1.905,0c-0.097,0 -0.176,-0.079 -0.176,-0.176l0,-0.352c0,-0.097 0.079,-0.176 0.176,-0.176l4.54,0c0.097,0 0.176,0.079 0.176,0.176l0,0.352c0,0.097 -0.079,0.176 -0.176,0.176l-1.905,0l0,4.104c0,0.101 -0.082,0.182 -0.182,0.182c0,0 -0.365,0 -0.365,0c-0.101,-0 -0.182,-0.082 -0.182,-0.182l0,-4.104Z" style="stroke:#fff;stroke-width:0.24px;"/><path d="M5.602,4.758l-1.606,0.792c-0.186,0.092 -0.412,0.015 -0.503,-0.171c-0.092,-0.186 -0.015,-0.412 0.171,-0.503l1.606,-0.792c0.186,-0.092 0.412,-0.015 0.503,0.171c0.092,0.186 0.015,0.412 -0.171,0.503Z"/><path d="M5.602,4.758l-1.606,0.792c-0.186,0.092 -0.412,0.015 -0.503,-0.171c-0.092,-0.186 -0.015,-0.412 0.171,-0.503l1.606,-0.792c0.186,-0.092 0.412,-0.015 0.503,0.171c0.092,0.186 0.015,0.412 -0.171,0.503Zm-0.106,-0.215c0.067,-0.033 0.095,-0.115 0.062,-0.182c-0.033,-0.067 -0.115,-0.095 -0.182,-0.062l-1.606,0.792c-0.067,0.033 -0.095,0.115 -0.062,0.182c0.033,0.067 0.115,0.095 0.182,0.062l1.606,-0.792Z" style="fill:#fff;"/></svg>